OpenSim_Sub10_EMGBaseline_GRF.mot
version=1
nRows=24
nColumns=19
inDegrees=no
endheader
time	lFx	lFy	lFz	lCOPx	lCOPy	lCOPz	rFx	rFy	rFz	rCOPx	rCOPy	rCOPz	lMx	lMy	lMz	rMx	rMy	rMz
41	3.43928304	0.71589383	1.48559769	-0.00003210	0	0.00003541	-57.56349003	638.83494792	-50.87562485	0.92350473	0	-0.40586798	0	0.00002762	0	0	-2.16338404	0
41.01000000	3.36469786	0.77505060	1.47537233	-0.00002396	0	0.00002552	-55.76671926	644.71977314	-52.83126761	0.91845792	0	-0.40533769	0	0.00001430	0	0	-2.18532025	0
41.02000000	3.30420505	0.76605609	1.43829011	-0.00001086	0	0.00001125	-54.04985146	648.66947450	-54.27025754	0.91342335	0	-0.40479000	0	0.00000426	0	0	-2.15840535	0
41.03000000	3.24352962	0.71518092	1.43473645	-0.00000244	0	0.00000234	-52.50250254	649.98597975	-55.17646963	0.90860038	0	-0.40421992	0	-0.00000032	0	0	-2.09092028	0
41.04000000	3.19580765	0.68800417	1.44370952	0.00000090	0	-0.00000108	-51.05707525	648.28604735	-55.39471739	0.90391877	0	-0.40361087	0	-0.00000136	0	0	-2.06068419	0
41.05000000	3.17328428	0.71387189	1.43062835	0.00000135	0	-0.00000148	-49.40241078	643.69098134	-54.96371716	0.89909842	0	-0.40303509	0	-0.00000103	0	0	-2.00935686	0
41.06000000	3.16683742	0.73711251	1.42300109	0.00000083	0	-0.00000089	-47.43544401	636.95950813	-54.02757535	0.89414912	0	-0.40256324	0	-0.00000058	0	0	-1.86824352	0
41.07000000	3.15351529	0.71856278	1.41439738	0.00000025	0	-0.00000029	-45.21815197	628.95862327	-52.67337111	0.88924731	0	-0.40216599	0	-0.00000047	0	0	-1.73726760	0
41.08000000	3.10192461	0.66852722	1.47244893	-0.00000006	0	0.00000003	-42.74991281	620.05120023	-51.14086283	0.88430145	0	-0.40181556	0	-0.00000065	0	0	-1.64307299	0
41.09000000	3.04698172	0.64052511	1.55853774	-0.00000006	0	0.00000007	-40.05746017	610.40395387	-49.74845469	0.87895902	0	-0.40152101	0	-0.00000069	0	0	-1.48480422	0
41.10000000	3.02211289	0.64272283	1.58364768	0.00000034	0	-0.00000018	-37.15410222	600.51763793	-48.58487222	0.87333009	0	-0.40125689	0	0.00000036	0	0	-1.30637740	0
41.11000000	3.03220032	0.61101035	1.59954004	0.00000120	0	-0.00000073	-34.15022254	591.13897704	-47.58965857	0.86766087	0	-0.40100774	0	0.00000387	0	0	-1.19599016	-0.00000000
41.12000000	3.06627303	0.50831039	1.62423110	0.00000225	0	-0.00000142	-31.11764831	582.99572713	-46.71716610	0.86192863	0	-0.40081647	0	0.00001056	0	0	-1.08894073	0
41.13000000	3.11496549	0.43902521	1.65171343	0.00000228	0	-0.00000147	-28.13590581	576.64705603	-45.88567763	0.85605203	0	-0.40069762	0	0.00001767	0	0	-0.95166909	-0.00000000
41.14000000	3.18079507	0.52934166	1.66219209	-0.00000161	0	0.00000093	-25.10212759	572.36631707	-45.00771746	0.84993514	0	-0.40063207	0	0.00001403	0	0	-0.80657076	0
41.15000000	3.23282843	0.66906317	1.64459228	-0.00001358	0	0.00000841	-21.98874098	570.32075559	-44.12474409	0.84350854	0	-0.40059723	0	-0.00002409	0	0	-0.60547587	0
41.16000000	3.25154102	0.66477378	1.59105180	-0.00003542	0	0.00002220	-18.96764101	570.64740453	-43.29132848	0.83694228	0	-0.40056002	0	-0.00012691	0	0	-0.31629931	0.00000000
41.17000000	3.23869899	0.56444806	1.51010038	-0.00005685	0	0.00003600	-16.24108230	573.19968683	-42.47681778	0.83033687	0	-0.40049812	0	-0.00029686	0	0	-0.01499493	0
41.18000000	3.22634749	0.56475449	1.46911774	-0.00003959	0	0.00002593	-13.69485413	577.47355764	-41.78539413	0.82345482	0	-0.40045490	0	-0.00042681	0	0	0.27689640	0
41.19000000	3.24402408	0.66407704	1.48775467	0.00009448	0	-0.00005719	-11.20235107	583.20652978	-41.36352859	0.81633221	0	-0.40040916	0	-0.00017991	0	0	0.59122649	0
41.20000000	3.27684212	0.71856801	1.53283462	0.00043912	0	-0.00027326	-8.70516878	590.19579735	-41.19735276	0.80920060	0	-0.40028582	0	0.00106810	0	0	0.90381258	0
41.21000000	3.31182802	0.69911370	1.59044884	0.00098496	0	-0.00061901	-6.11495225	597.95941084	-41.31086768	0.80219349	0	-0.40007394	0	0.00394935	0	0	1.19435567	0
41.22000000	3.34680213	0.56681163	1.60398826	0.00134776	0	-0.00085728	-3.31721539	606.02882114	-41.75167113	0.79521806	0	-0.39984932	0	0.00803041	0	0	1.48039960	0.00000000
41.23000000	3.38018381	0.28799108	1.63028806	0.00038777	0	-0.00027510	-0.26122134	614.27496856	-42.43916243	0.78829099	0	-0.39965909	0	0.00958847	0	0	1.73417380	0
